# xmcd
#
# Track frame offsets:
#	150
#	20191
#	41874
#	67174
#	86395
#	104084
#	125791
#	142436
#	161658
#	177686
#	191218
#	212253
#	232064
#	251557
#	271664
#	306870
#
# Disc length: 4535 seconds
#
# Revision: 1
# Processed by: cddbd v1.5.1PL2 Copyright (c) Steve Scherf et al.
# Submitted via: audiograbber 1.83.01
#
DISCID=0311b510
DTITLE=Compilation - Arabian Blues
DYEAR=2005
DGENRE=
TTITLE0=Shereen - Al Sa'ban Aleh
TTITLE1=Nancy Ajram - Enta Eh
TTITLE2=Wael Jassar - Habbet Ya Zaman
TTITLE3=Mohamed Muneer - Edayya Fi Gyoobi
TTITLE4=Abbas Ibrahim - Allah Ma'ah
TTITLE5=Baha'a Sultan - Bi Amaret Eh
TTITLE6=Tamer Hosni - El Wahdah Bete'telni
TTITLE7=Yara - Ayam
TTITLE8=Mekaella - Helm Ba'eed
TTITLE9=Yuri Mrakadi - Matha Akoul li Ouzouni
TTITLE10=Katia - Abadan
TTITLE11=Omar and Raffi - Men Ghair Enwan
TTITLE12=Kulna Sawa - Kel Ma Beshta'lek
TTITLE13=Yassir Habeeb - Elama
TTITLE14=Julia Boutros - Wein Msafer
TTITLE15=Data-Track - Daten-CD
EXTD=
EXTT0=
EXTT1=
EXTT2=
EXTT3=
EXTT4=
EXTT5=
EXTT6=
EXTT7=
EXTT8=
EXTT9=
EXTT10=
EXTT11=
EXTT12=
EXTT13=
EXTT14=
EXTT15=
PLAYORDER=
